# xmcd
# 
# Track frame offsets:
#     150
#     13110
#     30790
#     48900
#     65295
#     84150
#     107025
#     125090
#     143450
#     163370
# 
# Disc length: 2410
# 
# Revision: 6
# Processed by: cddbd v1.5.2PL0 Copyright (c) Steve Scherf et al.
# Submitted via: BonkEnc v1.0
# 
DISCID=7609680a
DTITLE=Spice Girls - Spice
DYEAR=1996
DGENRE=Pop
TTITLE0=Wannabe
TTITLE1=Say You'll Be There
TTITLE2=2 Become 1
TTITLE3=Love Thing
TTITLE4=Last Time Lover
TTITLE5=Mamma
TTITLE6=Who Do You Think You Are
TTITLE7=Something Kinda Funny
TTITLE8=Naked
TTITLE9=If U Can't Dance
EXTD=
EXTT0=
EXTT1=
EXTT2=
EXTT3=
EXTT4=
EXTT5=
EXTT6=
EXTT7=
EXTT8=
EXTT9=
PLAYORDER=
